# This file uses centimeters as units for non-parametric coordinates.

mtllib Crate_Low.mtl
g default
v -13.322011 26.264806 10.622261
v -13.322011 26.264806 -10.692952
v 13.322011 26.264806 -10.692952
v 13.322011 26.264806 10.622263
v -13.322011 4.683150 10.622261
v -13.322011 4.683149 -10.692952
v 13.322011 4.683150 -10.692952
v 13.322011 4.683149 10.622261
v -10.657608 4.683149 13.286666
v -10.657608 26.264806 13.286666
v -10.657608 28.929207 10.622263
v -10.657608 28.929207 -10.692952
v -10.657608 26.264806 -13.357354
v -10.657608 4.683150 -13.357354
v -10.657608 2.285187 -10.692952
v -10.657608 2.285187 10.622261
v 10.924049 28.929207 10.622261
v 10.924049 26.264806 13.286666
v 10.924049 4.683149 13.286666
v 10.924048 2.285187 10.622261
v 10.924049 2.285187 -10.692952
v 10.924048 4.683150 -13.357354
v 10.924048 26.264806 -13.357354
v 10.924048 28.929207 -10.692952
v -15.354004 0.253194 15.318657
v -12.283203 0.253194 15.318657
v -12.283203 3.016915 15.318657
v -15.354004 3.016915 15.318657
v -15.354004 30.961199 15.318657
v -12.283203 30.961199 15.318657
v -12.283203 30.961199 12.247858
v -15.354004 30.961199 12.247858
v -15.354002 3.016917 -15.389347
v -12.283204 3.016917 -15.389347
v -12.283204 0.253194 -15.389347
v -15.354002 0.253194 -15.389347
v -15.354002 0.253194 12.247858
v -12.283204 0.253194 12.247856
v 15.354002 0.253194 12.247859
v 15.354004 0.253194 15.318659
v 15.354004 3.016916 12.247857
v 15.354002 3.016916 15.318659
v -15.354004 3.016917 12.247857
v -15.354002 0.253196 -12.318546
v -15.354002 3.016915 -12.318546
v -12.283204 0.253196 -12.318546
v 15.354002 3.016917 -15.389346
v 15.354002 3.016917 -12.318547
v 15.354002 0.253194 -12.318546
v 15.354002 0.253194 -15.389347
v -15.354002 30.961199 -12.318546
v -12.283203 30.961199 -12.318546
v -12.283203 30.961199 -15.389346
v -15.354004 30.961199 -15.389346
v -15.354004 27.890401 12.247857
v -15.354004 27.890401 15.318657
v -15.354004 27.890401 -12.318546
v -15.354004 27.890401 -15.389346
v -12.283203 27.890400 -15.389346
v 15.354002 30.961199 -12.318546
v 15.354002 27.890400 -12.318546
v 15.354004 27.890400 -15.389346
v 15.354004 30.961199 -15.389346
v 15.354004 30.961199 12.247858
v 15.354002 27.890401 12.247858
v 15.354002 27.890400 15.318657
v 15.354002 30.961199 15.318657
v -12.283204 27.890400 15.318657
v 12.590283 3.016914 15.318657
v 12.590282 0.253196 15.318659
v 12.590283 27.890401 15.318657
v 12.590282 30.961199 15.318657
v 12.590283 30.961199 12.247856
v 12.590282 30.961199 -12.318546
v 12.590282 30.961199 -15.389346
v 12.590282 27.890400 -15.389346
v 12.590282 3.016917 -15.389346
v 12.590282 0.253196 -15.389346
v 12.590282 0.253194 -12.318546
v 12.590282 0.253196 12.247856
vt 0.375000 0.000000
vt 0.625000 0.000000
vt 0.375000 0.250000
vt 0.625000 0.250000
vt 0.375000 0.500000
vt 0.625000 0.500000
vt 0.375000 0.750000
vt 0.625000 0.750000
vt 0.375000 1.000000
vt 0.625000 1.000000
vt 0.875000 0.000000
vt 0.875000 0.250000
vt 0.125000 0.000000
vt 0.125000 0.250000
vt 0.350000 0.250000
vt 0.375000 0.275000
vt 0.350000 0.000000
vt 0.375000 0.975000
vt 0.625000 0.975000
vt 0.650000 0.000000
vt 0.625000 0.275000
vt 0.650000 0.250000
vt 0.150000 0.000000
vt 0.375000 0.775000
vt 0.150000 0.250000
vt 0.375000 0.475000
vt 0.625000 0.475000
vt 0.850000 0.250000
vt 0.625000 0.775000
vt 0.850000 0.000000
vt 0.375000 0.225000
vt 0.350000 0.225000
vt 0.150000 0.225000
vt 0.125000 0.225000
vt 0.375000 0.525000
vt 0.625000 0.525000
vt 0.875000 0.225000
vt 0.850000 0.225000
vt 0.650000 0.225000
vt 0.625000 0.225000
vt 0.375000 0.022500
vt 0.350000 0.022500
vt 0.150000 0.022500
vt 0.125000 0.022500
vt 0.375000 0.727500
vt 0.625000 0.727500
vt 0.875000 0.022500
vt 0.850000 0.022500
vt 0.650000 0.022500
vt 0.625000 0.022500
vt 0.400000 0.000000
vt 0.400000 1.000000
vt 0.400000 0.022500
vt 0.400000 0.225000
vt 0.400000 0.250000
vt 0.400000 0.275000
vt 0.400000 0.475000
vt 0.400000 0.500000
vt 0.400000 0.525000
vt 0.400000 0.727500
vt 0.400000 0.750000
vt 0.400000 0.775000
vt 0.400000 0.975000
vt 0.602500 0.275000
vt 0.602500 0.250000
vt 0.602500 0.225000
vt 0.602500 0.022500
vt 0.602500 0.000000
vt 0.602500 1.000000
vt 0.602500 0.975000
vt 0.602500 0.775000
vt 0.602500 0.750000
vt 0.602500 0.727500
vt 0.602500 0.525000
vt 0.602500 0.500000
vt 0.602500 0.475000
vt 0.350000 0.022500
vt 0.150000 0.022500
vt 0.400000 0.775000
vt 0.400000 0.975000
vt 0.850000 0.022500
vt 0.650000 0.022500
vt 0.400000 0.275000
vt 0.400000 0.475000
vt 0.150000 0.225000
vt 0.350000 0.225000
vt 0.650000 0.225000
vt 0.850000 0.225000
vt 0.400000 0.525000
vt 0.400000 0.727500
vt 0.400000 0.022500
vt 0.400000 0.225000
vt 0.602500 0.225000
vt 0.602500 0.022500
vt 0.602500 0.475000
vt 0.602500 0.275000
vt 0.602500 0.727500
vt 0.602500 0.525000
vt 0.602500 0.975000
vt 0.602500 0.775000
vn 0.000000 0.000000 1.000000
vn 0.000000 0.000000 1.000000
vn 0.000000 0.000000 1.000000
vn 0.000000 0.000000 1.000000
vn 0.000000 1.000000 0.000000
vn 0.000000 1.000000 0.000000
vn 0.000000 1.000000 0.000000
vn 0.000000 1.000000 0.000000
vn 0.000000 0.000000 -1.000000
vn 0.000000 0.000000 -1.000000
vn 0.000000 0.000000 -1.000000
vn 0.000000 0.000000 -1.000000
vn -0.000000 -1.000000 -0.000000
vn 0.000000 -1.000000 -0.000000
vn 0.000000 -1.000000 -0.000000
vn 0.000000 -1.000000 -0.000000
vn 1.000000 0.000000 0.000000
vn 1.000000 -0.000001 -0.000000
vn 1.000000 -0.000000 0.000000
vn 1.000000 0.000000 0.000000
vn -1.000000 0.000000 -0.000000
vn -1.000000 -0.000000 -0.000000
vn -1.000000 -0.000000 -0.000000
vn -1.000000 0.000000 -0.000000
vn -1.000000 0.000001 0.000000
vn -1.000000 -0.000000 -0.000000
vn -1.000000 -0.000000 -0.000000
vn -1.000000 -0.000000 -0.000000
vn 0.000000 -1.000000 0.000000
vn 0.000000 -1.000000 0.000000
vn 0.000000 -1.000000 0.000000
vn -0.000000 -1.000000 0.000000
vn 1.000000 -0.000000 0.000000
vn 1.000000 -0.000000 0.000000
vn 1.000000 -0.000001 -0.000000
vn 1.000000 -0.000000 0.000000
vn 0.000000 1.000000 0.000000
vn 0.000000 1.000000 0.000000
vn 0.000000 1.000000 -0.000000
vn 0.000000 1.000000 -0.000000
vn -1.000000 0.000000 -0.000000
vn -1.000000 0.000000 -0.000000
vn -1.000000 0.000000 0.000000
vn -1.000000 0.000000 0.000000
vn -1.000000 0.000000 -0.000000
vn -1.000000 -0.000000 -0.000000
vn -1.000000 -0.000000 0.000000
vn -1.000000 0.000000 0.000000
vn -0.000001 0.000000 -1.000000
vn -0.000000 0.000000 -1.000000
vn 0.000000 0.000000 -1.000000
vn 0.000000 0.000000 -1.000000
vn 1.000000 -0.000000 0.000000
vn 1.000000 -0.000000 0.000000
vn 1.000000 0.000000 0.000000
vn 1.000000 0.000000 0.000001
vn 1.000000 -0.000000 -0.000000
vn 1.000000 -0.000000 0.000000
vn 1.000000 0.000000 0.000000
vn 1.000000 0.000000 0.000000
vn 0.000000 0.000000 1.000000
vn 0.000000 0.000000 1.000000
vn 0.000000 0.000000 1.000000
vn 0.000000 0.000000 1.000000
vn -1.000000 0.000000 0.000000
vn -1.000000 0.000000 0.000000
vn -1.000000 0.000000 0.000000
vn -1.000000 0.000000 0.000000
vn 1.000000 0.000000 0.000000
vn 1.000000 0.000000 0.000000
vn 1.000000 0.000000 0.000000
vn 1.000000 0.000000 0.000000
vn -0.000000 0.000000 1.000000
vn -0.000000 0.000000 1.000000
vn -0.000001 0.000000 1.000000
vn -0.000001 0.000000 1.000000
vn -0.000000 0.000000 1.000000
vn -0.000001 0.000000 1.000000
vn 0.000000 0.000000 1.000000
vn 0.000000 0.000000 1.000000
vn 0.000000 1.000000 0.000000
vn 0.000000 1.000000 0.000000
vn 0.000000 1.000000 0.000000
vn 0.000000 1.000000 0.000000
vn 0.000000 1.000000 -0.000000
vn 0.000000 1.000000 -0.000000
vn 0.000000 1.000000 -0.000000
vn 0.000000 1.000000 -0.000000
vn 0.000000 0.000000 -1.000000
vn 0.000000 0.000000 -1.000000
vn 0.000000 0.000000 -1.000000
vn 0.000000 0.000000 -1.000000
vn 0.000000 0.000000 -1.000000
vn -0.000000 0.000000 -1.000000
vn -0.000000 0.000000 -1.000000
vn -0.000000 0.000000 -1.000000
vn -0.000000 -1.000000 0.000000
vn -0.000000 -1.000000 0.000000
vn -0.000000 -1.000000 0.000000
vn -0.000000 -1.000000 0.000000
vn -0.000000 -1.000000 0.000000
vn -0.000000 -1.000000 0.000000
vn -0.000000 -1.000000 0.000000
vn -0.000001 -1.000000 0.000000
vn 0.000000 1.000000 0.000000
vn 0.000000 1.000000 0.000000
vn 0.000000 1.000000 0.000000
vn 0.000000 1.000000 0.000000
vn 0.000000 0.000000 1.000000
vn 0.000000 0.000000 1.000000
vn 0.000000 0.000000 1.000000
vn 0.000000 0.000000 1.000000
vn 0.000000 -1.000000 -0.000000
vn 0.000000 -1.000000 -0.000000
vn 0.000000 -1.000000 -0.000000
vn 0.000000 -1.000000 -0.000000
vn 0.000000 0.000000 -1.000000
vn 0.000000 0.000000 -1.000000
vn 0.000000 0.000000 -1.000000
vn 0.000000 0.000000 -1.000000
vn -0.634080 0.773268 -0.000000
vn -0.634080 0.773268 -0.000000
vn -0.634080 0.773268 -0.000000
vn -0.634080 0.773268 -0.000000
vn 0.780868 -0.624695 -0.000000
vn 0.780868 -0.624695 -0.000000
vn 0.780868 -0.624695 -0.000000
vn 0.780868 -0.624696 -0.000000
vn 0.634079 0.773268 0.000000
vn 0.634079 0.773268 0.000000
vn 0.634079 0.773268 0.000000
vn 0.634079 0.773268 0.000000
vn 0.780869 0.624695 0.000000
vn 0.780869 0.624695 0.000000
vn 0.780869 0.624695 0.000000
vn 0.780869 0.624695 0.000000
vn -0.624695 -0.780869 0.000000
vn -0.624695 -0.780869 0.000000
vn -0.624695 -0.780869 0.000000
vn -0.624695 -0.780869 0.000000
vn 0.624695 -0.780869 0.000000
vn 0.624695 -0.780869 0.000000
vn 0.624695 -0.780869 0.000000
vn 0.624695 -0.780869 0.000000
vn -0.624695 0.000000 -0.780869
vn -0.624695 0.000000 -0.780869
vn -0.624695 0.000000 -0.780869
vn -0.624695 0.000000 -0.780869
vn -0.624695 -0.000000 0.780869
vn -0.624695 -0.000000 0.780869
vn -0.624695 -0.000000 0.780869
vn -0.624695 -0.000000 0.780869
vn 0.780868 0.000000 -0.624696
vn 0.780868 0.000000 -0.624696
vn 0.780868 0.000000 -0.624696
vn 0.780868 0.000000 -0.624696
vn 0.624696 -0.000000 0.780868
vn 0.624696 -0.000000 0.780868
vn 0.624696 -0.000000 0.780868
vn 0.624696 -0.000000 0.780868
vn 0.624696 0.000000 -0.780868
vn 0.624696 0.000000 -0.780868
vn 0.624696 0.000000 -0.780868
vn 0.624696 0.000000 -0.780868
vn 0.780868 0.000000 0.624695
vn 0.780869 0.000000 0.624695
vn 0.780868 0.000000 0.624695
vn 0.780868 0.000000 0.624696
vn -0.773267 0.000000 0.634080
vn -0.773267 0.000000 0.634080
vn -0.773267 0.000000 0.634080
vn -0.773267 0.000000 0.634080
vn -0.773268 0.634080 0.000000
vn -0.773268 0.634080 0.000000
vn -0.773268 0.634080 0.000000
vn -0.773268 0.634080 0.000000
vn -0.773268 0.000000 -0.634080
vn -0.773268 0.000000 -0.634080
vn -0.773268 0.000000 -0.634080
vn -0.773268 0.000000 -0.634080
vn -0.773268 -0.634080 0.000000
vn -0.773268 -0.634080 0.000000
vn -0.773268 -0.634080 0.000000
vn -0.773268 -0.634080 0.000000
vn -0.000000 0.624696 -0.780868
vn -0.000000 0.624696 -0.780868
vn -0.000000 0.624695 -0.780868
vn -0.000000 0.624696 -0.780868
vn 0.000000 -0.780868 0.624696
vn 0.000000 -0.780868 0.624696
vn 0.000000 -0.780868 0.624696
vn 0.000000 -0.780868 0.624696
vn 0.000000 0.773268 0.634080
vn 0.000000 0.773268 0.634080
vn 0.000000 0.773268 0.634080
vn 0.000000 0.773268 0.634080
vn 0.000000 -0.624695 -0.780869
vn 0.000000 -0.624695 -0.780869
vn 0.000000 -0.624695 -0.780869
vn 0.000000 -0.624695 -0.780869
vn 0.000000 -0.624695 0.780869
vn 0.000000 -0.624695 0.780869
vn 0.000000 -0.624695 0.780869
vn 0.000000 -0.624695 0.780869
vn 0.000000 0.773268 -0.634080
vn 0.000000 0.773268 -0.634080
vn 0.000000 0.773268 -0.634080
vn 0.000000 0.773268 -0.634080
vn 0.000000 -0.780869 -0.624695
vn 0.000000 -0.780869 -0.624695
vn 0.000000 -0.780869 -0.624695
vn 0.000000 -0.780869 -0.624695
vn -0.000000 0.624695 0.780869
vn -0.000000 0.624695 0.780869
vn -0.000000 0.624695 0.780869
vn -0.000000 0.624695 0.780869
s 1
g Crate_Low
usemtl initialShadingGroup
f 25/1/1 26/51/2 27/91/3 28/41/4
s 2
f 29/3/5 30/55/6 31/83/7 32/16/8
s 3
f 33/45/9 34/90/10 35/61/11 36/7/12
s 4
f 37/18/13 38/80/14 26/52/15 25/9/16
s 5
f 40/2/17 39/20/18 41/82/19 42/50/20
s 6
f 28/41/21 43/77/22 37/17/23 25/1/24
f 36/13/25 44/23/26 45/78/27 33/44/28
s 4
f 36/7/29 35/61/30 46/79/31 44/24/32
s 5
f 47/47/33 48/81/34 49/30/35 50/11/36
s 2
f 51/26/37 52/84/38 53/58/39 54/5/40
s 6
f 44/23/26 37/17/23 43/77/22 45/78/27
s 4
f 46/79/31 38/80/14 37/18/13 44/24/32
s 5
f 48/81/34 41/82/19 39/20/18 49/30/35
s 2
f 51/26/37 32/16/8 31/83/7 52/84/38
s 6
f 32/15/41 55/86/42 56/31/43 29/3/44
f 55/86/42 32/15/41 51/25/45 57/85/46
f 58/34/47 57/85/46 51/25/45 54/14/48
s 3
f 54/5/49 53/58/50 59/89/51 58/35/52
s 5
f 60/28/53 61/88/54 62/37/55 63/12/56
f 60/28/53 64/22/57 65/87/58 61/88/54
f 66/40/59 65/87/58 64/22/57 67/4/60
s 1
f 56/31/61 68/92/62 30/55/63 29/3/64
s 6
f 56/31/43 55/86/42 43/77/22 28/41/21
s off
f 5/42/65 1/32/66 2/33/67 6/43/68
s 6
f 33/44/28 45/78/27 57/85/46 58/34/47
s 3
f 58/35/52 59/89/51 34/90/10 33/45/9
s 5
f 62/37/55 61/88/54 48/81/34 47/47/33
s off
f 3/38/69 4/39/70 8/49/71 7/48/72
s 5
f 42/50/20 41/82/19 65/87/58 66/40/59
s 1
f 28/41/4 27/91/3 68/92/62 56/31/61
f 69/94/73 70/68/74 40/2/75 42/50/76
f 71/93/77 69/94/73 42/50/76 66/40/78
f 72/65/79 71/93/77 66/40/78 67/4/80
s 2
f 73/96/81 72/65/82 67/4/83 64/21/84
f 73/96/81 64/21/84 60/27/85 74/95/86
f 75/75/87 74/95/86 60/27/85 63/6/88
s 3
f 76/98/89 75/75/90 63/6/91 62/36/92
f 77/97/93 76/98/89 62/36/92 47/46/94
f 78/72/95 77/97/93 47/46/94 50/8/96
s 4
f 79/100/97 78/72/98 50/8/99 49/29/100
f 49/29/100 39/19/101 80/99/102 79/100/97
f 70/69/103 80/99/102 39/19/101 40/10/104
s off
f 12/57/105 11/56/106 17/64/107 24/76/108
s 2
f 31/83/7 30/55/6 72/65/82 73/96/81
s 1
f 30/55/63 68/92/62 71/93/77 72/65/79
s off
f 10/54/109 9/53/110 19/67/111 18/66/112
s 1
f 27/91/3 26/51/2 70/68/74 69/94/73
s 4
f 26/52/15 38/80/14 80/99/102 70/69/103
s off
f 20/70/113 16/63/114 15/62/115 21/71/116
s 4
f 46/79/31 35/61/30 78/72/98 79/100/97
s 3
f 35/61/11 34/90/10 77/97/93 78/72/95
s off
f 14/60/117 13/59/118 23/74/119 22/73/120
s 3
f 59/89/51 53/58/50 75/75/90 76/98/89
s 2
f 53/58/39 52/84/38 74/95/86 75/75/87
s off
f 5/42/121 6/43/122 45/78/123 43/77/124
f 15/62/125 16/63/126 38/80/127 46/79/128
f 7/48/129 8/49/130 41/82/131 48/81/132
f 11/56/133 12/57/134 52/84/135 31/83/136
f 2/33/137 1/32/138 55/86/139 57/85/140
f 4/39/141 3/38/142 61/88/143 65/87/144
f 1/32/145 5/42/146 43/77/147 55/86/148
f 6/43/149 2/33/150 57/85/151 45/78/152
f 13/59/153 14/60/154 34/90/155 59/89/156
f 3/38/157 7/48/158 48/81/159 61/88/160
f 8/49/161 4/39/162 65/87/163 41/82/164
f 9/53/165 10/54/166 68/92/167 27/91/168
f 18/66/169 19/67/170 69/94/171 71/93/172
f 24/76/173 17/64/174 73/96/175 74/95/176
f 22/73/177 23/74/178 76/98/179 77/97/180
f 20/70/181 21/71/182 79/100/183 80/99/184
f 17/64/185 11/56/186 31/83/187 73/96/188
f 10/54/189 18/66/190 71/93/191 68/92/192
f 19/67/193 9/53/194 27/91/195 69/94/196
f 16/63/197 20/70/198 80/99/199 38/80/200
f 21/71/201 15/62/202 46/79/203 79/100/204
f 14/60/205 22/73/206 77/97/207 34/90/208
f 23/74/209 13/59/210 59/89/211 76/98/212
f 12/57/213 24/76/214 74/95/215 52/84/216
